<?xml version="1.0" encoding="UTF-8"?>
<svg width="20px" height="20px" viewBox="0 0 20 20" version="1.1" xmlns="http://www.w3.org/2000/svg" xmlns:xlink="http://www.w3.org/1999/xlink">
    <title>31950210-366C-41A2-8334-362DCB81CE11</title>
    <g id="Page-1" stroke="none" stroke-width="1" fill="none" fill-rule="evenodd">
        <g id="adding-new-API-Calls" transform="translate(-1008.000000, -354.000000)" fill-rule="nonzero">
            <g id="Dropdown/Select/Default-Copy-17" transform="translate(998.000000, 344.000000)">
                <g id="Icon/Connectro-logo" transform="translate(10.000000, 10.000000)">
                    <g id="006-sheets" transform="translate(2.000000, 0.000000)">
                        <path d="M14.5082812,5.47792969 L14.5082812,18.7115625 C14.5082812,19.4232422 13.9310156,19.9999609 13.2198828,19.9999609 L1.31140625,19.9999609 C0.599726563,19.9999609 0.0230078125,19.4232422 0.0230078125,18.7115625 L0.0230078125,1.28839844 C0.0230078125,0.57671875 0.5996875,0 1.31140625,0 L9.03035156,0 L14.5082812,5.47792969 Z" id="Path" fill="#28B446"></path>
                        <polygon id="Path" fill="#219B38" points="9.77773437 5.35890625 14.5082812 7.30777344 14.5082812 5.47792969 11.8262109 4.68601562"></polygon>
                        <path d="M14.5082813,5.47792969 L10.31875,5.47792969 C9.60703125,5.47792969 9.03035156,4.90121094 9.03035156,4.18953125 L9.03035156,0 L14.5082813,5.47792969 Z" id="Path" fill="#6ACE7C"></path>
                        <path d="M10.4341797,9.95882813 L4.09671875,9.95882813 C3.869375,9.95882813 3.68515625,10.1430859 3.68515625,10.3703906 L3.68515625,15.8848047 C3.68515625,16.1120703 3.869375,16.2963672 4.09671875,16.2963672 L10.4341797,16.2963672 C10.6615234,16.2963672 10.8457422,16.1121094 10.8457422,15.8848047 L10.8457422,10.3703906 C10.8457422,10.143125 10.6615234,9.95882813 10.4341797,9.95882813 Z M4.50828125,12.6047656 L6.85390625,12.6047656 L6.85390625,13.6505859 L4.50828125,13.6505859 L4.50828125,12.6047656 Z M7.67699219,12.6047656 L10.0226172,12.6047656 L10.0226172,13.6505859 L7.67699219,13.6505859 L7.67699219,12.6047656 Z M10.0226562,11.7816797 L7.67703125,11.7816797 L7.67703125,10.7819531 L10.0226562,10.7819531 L10.0226562,11.7816797 L10.0226562,11.7816797 Z M6.85390625,10.7819531 L6.85390625,11.7816406 L4.50828125,11.7816406 L4.50828125,10.7819531 L6.85390625,10.7819531 Z M4.50828125,14.4736719 L6.85390625,14.4736719 L6.85390625,15.4733594 L4.50828125,15.4733594 L4.50828125,14.4736719 Z M7.67699219,15.4733203 L7.67699219,14.4736328 L10.0226172,14.4736328 L10.0226172,15.4733203 L7.67699219,15.4733203 Z" id="Shape" fill="#FFFFFF"></path>
                    </g>
                </g>
            </g>
        </g>
    </g>
</svg>